<?xml version="1.0" encoding="UTF-8"?>
<svg version="1.1" xmlns="http://www.w3.org/2000/svg" width="512" height="512">
<path d="M0 0 C1.28099359 -0.00668677 1.28099359 -0.00668677 2.58786583 -0.01350862 C3.52131136 -0.01332426 4.45475689 -0.01313989 5.41648865 -0.01294994 C6.9096205 -0.01846498 6.9096205 -0.01846498 8.43291664 -0.02409142 C11.77827591 -0.0351303 15.12360412 -0.03897249 18.46897888 -0.04278088 C20.86386209 -0.04904546 23.25874432 -0.05569226 25.65362549 -0.0626936 C32.84822049 -0.08192252 40.04281292 -0.09252302 47.2374258 -0.10142139 C50.6289218 -0.10580805 54.02041624 -0.11117396 57.41191101 -0.11641026 C68.69258805 -0.1334225 79.97326413 -0.14791466 91.25395203 -0.155159 C94.18028261 -0.15706877 97.10661318 -0.15898912 100.03294373 -0.16094494 C100.76023461 -0.16142868 101.4875255 -0.16191242 102.23685551 -0.16241082 C114.00732114 -0.17070358 125.77768489 -0.19602772 137.54810607 -0.22852562 C149.64394542 -0.26164847 161.7397331 -0.27961256 173.83561802 -0.28280324 C180.62233358 -0.28496375 187.40890067 -0.2936446 194.1955719 -0.31926441 C200.58465972 -0.34257928 206.97348096 -0.34676437 213.36260033 -0.33650303 C215.70223058 -0.33600837 218.04187411 -0.34230812 220.381464 -0.35605907 C243.15245967 -0.48236077 243.15245967 -0.48236077 252.71507263 4.13422108 C253.55839142 4.53813918 254.40171021 4.94205729 255.27058411 5.35821533 C263.304089 9.45509495 269.56119062 16.28974067 275.98753357 22.48334217 C278.22844504 24.6248124 280.52579568 26.69747923 282.84007263 28.75922108 C286.66763559 32.17986704 290.44862604 35.64668983 294.21507263 39.13422108 C298.02487261 42.66124089 301.84844853 46.16932416 305.71507263 49.63422108 C311.77275034 55.07336768 317.77604837 60.56581809 323.71507263 66.13422108 C324.21216736 66.59586658 324.70926208 67.05751209 325.22142029 67.53314686 C336.93411791 78.47314548 346.99932551 90.57647446 347.81768417 107.22126102 C347.87231946 109.57948569 347.89579681 111.93603894 347.90794373 114.29486561 C347.91612122 115.18518482 347.92429871 116.07550404 347.932724 116.99280262 C347.95739216 119.91753965 347.97403819 122.84222908 347.98851013 125.76703358 C347.99383381 126.76936905 347.99915749 127.77170452 348.00464249 128.8044138 C348.03128194 134.10102795 348.0506936 139.39761918 348.06517029 144.69427967 C348.07855109 149.07469844 348.10649291 153.45465597 348.14720154 157.83490467 C348.19643643 163.13389029 348.22127823 168.43245531 348.22839737 173.73165989 C348.23511615 175.74832099 348.25035444 177.76497246 348.27428818 179.78150272 C348.30584465 182.59895915 348.30599201 185.41477948 348.29856873 188.23236561 C348.31497406 189.06365986 348.33137939 189.89495411 348.34828186 190.75143909 C348.30197964 195.0421858 348.07181751 196.67004163 345.36610413 200.19058704 C342.71507263 202.13422108 342.71507263 202.13422108 339.71507263 202.13422108 C339.71507263 208.40422108 339.71507263 214.67422108 339.71507263 221.13422108 C341.69507263 221.79422108 343.67507263 222.45422108 345.71507263 223.13422108 C348.74020495 226.6379322 347.99545164 231.56400683 347.97576904 235.95573902 C347.97959459 236.85653299 347.98342014 237.75732696 347.98736161 238.68541771 C347.99769857 241.71064748 347.99369801 244.73568769 347.98973083 247.76093006 C347.99407716 249.92759343 347.99926003 252.09425526 348.00521851 254.2609148 C348.01863441 260.15394211 348.01918385 266.04690538 348.01665521 271.93994498 C348.01558636 276.86236083 348.02046713 281.78476368 348.02526063 286.70717674 C348.03636668 298.32829448 348.03678831 309.9493799 348.03074646 321.57050037 C348.02471702 333.54346234 348.03698898 345.51629278 348.05831653 357.48924106 C348.07596354 367.77564696 348.08192864 378.06201547 348.07867879 388.34843594 C348.07686932 394.48848867 348.07946776 400.62845753 348.09339333 406.76849651 C348.10601591 412.55101747 348.10398565 418.33335597 348.09098244 424.11587429 C348.08862602 426.23093065 348.09131758 428.34600002 348.09960556 430.46104145 C348.17079895 450.05249946 346.32333452 465.95724785 332.19163513 480.84515858 C321.07572279 491.11948765 308.4095229 494.75773438 293.532547 494.63542652 C291.62277366 494.64372812 291.62277366 494.64372812 289.67441905 494.65219742 C286.17479106 494.66683204 282.67561854 494.65684342 279.17600584 494.6424607 C275.38864751 494.63128596 271.60134971 494.64331477 267.81399536 494.65230274 C260.4086977 494.66619243 253.00357126 494.65871113 245.59828185 494.64362716 C236.96610481 494.6267171 228.33396983 494.62998354 219.70178135 494.63372124 C204.29634656 494.63959181 188.89099366 494.62545887 173.48558044 494.60077381 C158.55162997 494.57684706 143.61778884 494.56977384 128.68382263 494.580266 C112.40158559 494.591685 96.11939905 494.59359378 79.83716261 494.5791679 C78.09983739 494.57764214 76.36251216 494.57612178 74.62518692 494.5746069 C73.34314994 494.57347017 73.34314994 494.57347017 72.03521322 494.57231049 C66.02397518 494.56757591 60.01275976 494.56941317 54.00152206 494.57367229 C46.67334677 494.57860774 39.34527468 494.57257525 32.01712297 494.552778 C28.28115961 494.54293245 24.54535312 494.53777118 20.80938148 494.54567051 C16.75398361 494.5540696 12.69900108 494.53909741 8.64363098 494.52190113 C6.88447438 494.5309162 6.88447438 494.5309162 5.08977926 494.54011339 C-8.26207651 494.43728064 -20.68878444 490.02984842 -30.66383362 480.89203358 C-39.36628099 471.45564486 -45.44773711 460.32820985 -45.33180237 447.37250233 C-45.32503479 446.38935047 -45.31826721 445.40619862 -45.31129456 444.39325428 C-45.30259338 443.64777332 -45.29389221 442.90229237 -45.28492737 442.13422108 C-46.20717102 442.14469471 -47.12941467 442.15516834 -48.0796051 442.16595936 C-51.54056865 442.20028871 -55.00134807 442.22523938 -58.4624176 442.24408436 C-59.95300677 442.25406778 -61.44357673 442.2676593 -62.93409729 442.28509998 C-75.58513781 442.42929555 -86.38003652 442.24703869 -96.23414612 433.38031483 C-104.42857802 424.87665908 -104.73945268 414.74004433 -104.78419495 403.40131092 C-104.79975509 402.04649021 -104.8164556 400.6916822 -104.834198 399.33688831 C-104.87748586 395.6836498 -104.90121163 392.03055982 -104.91842484 388.37711382 C-104.92950428 386.085716 -104.94379402 383.79435831 -104.95894432 381.50298405 C-105.00524591 374.30767525 -105.03884758 367.11246449 -105.05496007 359.91702402 C-105.07366935 351.65876634 -105.13502773 343.4022869 -105.23346215 335.14460313 C-105.3072527 328.72889058 -105.34186453 322.31367781 -105.34782332 315.89754736 C-105.35223537 312.08018358 -105.37239743 308.26458534 -105.43392372 304.44767857 C-105.68917811 287.71678582 -105.71373023 274.2953338 -94.28492737 261.13422108 C-93.24098599 259.64489341 -92.21005775 258.14601768 -91.21070862 256.62640858 C-90.34365134 255.41777347 -89.47259153 254.21199904 -88.59742737 253.00922108 C-83.98552844 246.56919565 -79.48276971 240.06360051 -75.03492737 233.50922108 C-69.62158408 225.5400652 -64.16321836 217.60405458 -58.65992737 209.69672108 C-57.99702698 208.74394276 -57.33412659 207.79116444 -56.65113831 206.80951405 C-51.35696674 199.21287985 -51.35696674 199.21287985 -48.60401917 196.20697498 C-44.78633531 190.82634945 -45.6387763 184.35524759 -45.71852112 178.02875233 C-45.71555728 176.65827557 -45.70981964 175.28780229 -45.70144653 173.91734791 C-45.68079647 169.59358065 -45.70034734 165.27044646 -45.72242737 160.94672108 C-45.74356375 155.92307499 -45.74809655 150.90007716 -45.72192574 145.87644482 C-45.71857116 143.87116672 -45.7402611 141.86589727 -45.7623291 139.8607378 C-45.75874893 138.64234715 -45.75516876 137.42395649 -45.7514801 136.16864491 C-45.76077797 134.56150372 -45.76077797 134.56150372 -45.77026367 132.92189503 C-45.16370029 129.43791714 -44.08309793 128.23815557 -41.28492737 126.13422108 C-40.29492737 126.13422108 -39.30492737 126.13422108 -38.28492737 126.13422108 C-38.28492737 117.55422108 -38.28492737 108.97422108 -38.28492737 100.13422108 C-40.26492737 99.63922108 -40.26492737 99.63922108 -42.28492737 99.13422108 C-44.01066589 97.89864063 -44.01066589 97.89864063 -45.28492737 96.13422108 C-45.6658783 93.75273609 -45.6658783 93.75273609 -45.67311096 90.90350819 C-45.68256744 89.83487034 -45.69202393 88.76623249 -45.70176697 87.66521168 C-45.69569427 86.50900822 -45.68962158 85.35280476 -45.68336487 84.16156483 C-45.68623505 82.96874393 -45.68910522 81.77592304 -45.69206238 80.54695606 C-45.69410629 78.01752722 -45.68855369 75.48808269 -45.67604065 72.95868397 C-45.66009115 69.11123049 -45.67582801 65.26484345 -45.69508362 61.4174242 C-45.69309931 58.95713544 -45.68925177 56.49684734 -45.68336487 54.03656483 C-45.68943756 52.89453098 -45.69551025 51.75249714 -45.70176697 50.57585621 C-45.57366567 35.80075587 -40.42983378 23.85786376 -30.28492737 13.13422108 C-21.93187916 5.76835129 -11.39265557 0.02767697 0 0 Z " fill="#DDE7F3" transform="translate(134.28492736816406,8.865778923034668)"/>
<path d="M0 0 C0.66902344 0.11214844 1.33804688 0.22429687 2.02734375 0.33984375 C2.69894531 0.43394531 3.37054688 0.52804688 4.0625 0.625 C6.47307892 1.45162562 7.4022893 2.25538926 8.96484375 4.27734375 C9.33398724 6.84853649 9.33398724 6.84853649 9.3256073 9.99101257 C9.32973129 11.18153229 9.33385529 12.372052 9.33810425 13.59864807 C9.32731842 14.90631638 9.31653259 16.21398468 9.30541992 17.5612793 C9.30457379 18.95086651 9.30504852 20.34045507 9.30674744 21.7300415 C9.30760937 25.50465401 9.28995179 29.27898143 9.26902556 33.05352759 C9.25029165 36.99732509 9.24851092 40.94112887 9.24494934 44.88496399 C9.23561919 52.35415473 9.21099235 59.82321398 9.18090087 67.29234678 C9.14738699 75.79525899 9.13087844 84.29817743 9.11581457 92.80113924 C9.08444359 110.2932835 9.03166431 127.78529973 8.96484375 145.27734375 C9.52139879 145.27582487 10.07795382 145.27430599 10.65137416 145.27274108 C43.66137042 145.18316499 76.67133613 145.11456533 109.68142675 145.07308243 C113.64788822 145.0680798 117.61434944 145.06290249 121.58081055 145.05761719 C122.37043805 145.05656795 123.16006555 145.0555187 123.97362115 145.05443767 C136.74731783 145.03704798 149.52094225 145.00551824 162.29459611 144.96873257 C175.40843863 144.9312831 188.52224339 144.90909944 201.63613719 144.90098977 C209.72353198 144.89551028 217.81072254 144.87822444 225.89805444 144.84567788 C232.10683373 144.82196913 238.31545837 144.81953401 244.52427673 144.82491302 C247.06589704 144.82381446 249.60752523 144.81588292 252.14909935 144.80052185 C255.62688709 144.78053705 259.10381032 144.78543639 262.58161926 144.79632568 C263.58067931 144.78467432 264.57973935 144.77302295 265.60907394 144.76101851 C275.37465133 144.84331993 284.07717284 147.43991157 291.2421875 154.28125 C296.7187181 160.62707118 299.0712463 167.06610285 299.11201477 175.39822388 C299.12274773 176.91185768 299.12274773 176.91185768 299.13369751 178.45606995 C299.13638641 179.55225143 299.13907532 180.64843292 299.1418457 181.77783203 C299.1484169 182.94107498 299.1549881 184.10431793 299.16175842 185.30281067 C299.18146258 189.15109322 299.19314817 192.99933677 299.203125 196.84765625 C299.20720053 198.16428127 299.21127605 199.4809063 299.21547508 200.83742905 C299.23451159 207.08928707 299.24874423 213.34113343 299.25708705 219.59301484 C299.26684541 226.78497833 299.29313436 233.97663291 299.33358794 241.16848767 C299.36385796 246.74323908 299.37856628 252.31790249 299.38186806 257.89273441 C299.38420672 261.21479224 299.39501955 264.53644625 299.41832924 267.85843277 C299.44276997 271.57269883 299.44174591 275.28616583 299.43481445 279.00048828 C299.45402954 280.62654243 299.45402954 280.62654243 299.47363281 282.28544617 C299.41042846 291.62442773 297.38717462 300.78229351 290.8125 307.77734375 C284.09506751 313.2308196 276.75990957 315.42555576 268.2727356 315.4312439 C267.48149099 315.43562615 266.69024639 315.4400084 265.87502468 315.44452345 C263.21502057 315.45791303 260.55504959 315.46409061 257.89501953 315.47021484 C255.99138234 315.47811552 254.08774666 315.48638445 252.18411255 315.49499512 C245.92614167 315.52121336 239.66816409 315.53651988 233.41015625 315.55078125 C231.25730256 315.5561405 229.10444891 315.56151801 226.95159531 315.5669136 C217.9991139 315.58853963 209.0466343 315.60727804 200.09413338 315.618536 C187.25459163 315.63478743 174.41535191 315.66799745 161.57592404 315.72493684 C152.55250544 315.76359289 143.52916777 315.78316339 134.50566852 315.78845656 C129.11357758 315.79211519 123.72180878 315.80419127 118.32980728 315.8365593 C113.25884933 315.86656452 108.18840975 315.87297873 103.11738205 315.86117554 C101.25534384 315.86095419 99.39328209 315.8693098 97.53132629 315.88682938 C94.99056227 315.90943674 92.45169153 315.90126658 89.91091919 315.88534546 C89.17268579 315.89922755 88.43445238 315.91310963 87.67384827 315.92741239 C83.72191366 315.8663207 82.08954794 315.3777603 78.96821404 312.86434364 C76.96484375 310.27734375 76.96484375 310.27734375 76.96484375 308.27734375 C71.35484375 308.27734375 65.74484375 308.27734375 59.96484375 308.27734375 C59.30484375 309.92734375 58.64484375 311.57734375 57.96484375 313.27734375 C54.78587762 315.3966545 54.03509843 315.52430405 50.40161133 315.50439453 C49.48088333 315.50424347 48.56015533 315.50409241 47.61152649 315.50393677 C46.6208165 315.4936142 45.63010651 315.48329163 44.609375 315.47265625 C43.08421516 315.46841141 43.08421516 315.46841141 41.52824402 315.46408081 C38.27782467 315.45287758 35.02767994 315.42777261 31.77734375 315.40234375 C29.57487377 315.39231414 27.37239947 315.38318826 25.16992188 315.375 C19.76813532 315.3529378 14.36650916 315.31945883 8.96484375 315.27734375 C9.23093349 317.32310988 9.51105743 319.36705295 9.796875 321.41015625 C9.9513208 322.54855957 10.1057666 323.68696289 10.26489258 324.85986328 C12.00051591 333.33396699 17.0509511 341.08177667 23.96484375 346.27734375 C30.28657027 350.02934218 35.78827359 352.39714354 43.1739893 352.41156483 C44.76418844 352.41825159 44.76418844 352.41825159 46.38651282 352.42507344 C47.55020642 352.42488908 48.71390001 352.42470472 49.91285706 352.42451477 C51.76844165 352.4300298 51.76844165 352.4300298 53.66151279 352.43565625 C57.09733045 352.44477671 60.53310037 352.44939139 63.9689256 352.45204556 C67.67394764 352.45595171 71.37895589 352.46552989 75.08396912 352.47425842 C84.03311549 352.49401489 92.98226299 352.50408838 101.93142572 352.51298621 C106.14740425 352.51737078 110.36338152 352.52273718 114.57935905 352.52797508 C128.59739324 352.54498716 142.61542665 352.55948059 156.63346958 352.56672382 C160.27070174 352.56863367 163.90793389 352.57055401 167.54516602 352.57250977 C168.44916549 352.57299351 169.35316496 352.57347725 170.28455835 352.57397565 C184.92359442 352.58227315 199.56254869 352.60760542 214.20154906 352.64009044 C229.23654544 352.67318173 244.27150029 352.69117449 259.30653328 352.69436806 C267.74591165 352.69653133 276.18517078 352.70525304 284.62451363 352.73082924 C291.81304808 352.7525646 299.00143433 352.76057278 306.18999792 352.75086246 C309.85521163 352.74632582 313.52011974 352.74816641 317.18529129 352.7676239 C321.16630159 352.78857475 325.14689385 352.77824418 329.12794495 352.76509094 C330.85006277 352.78154481 330.85006277 352.78154481 332.60697085 352.79833108 C343.03838926 352.71532667 351.86285309 350.08108596 359.95703125 343.3359375 C367.53859019 335.56262707 370.27440624 326.6672936 370.21640015 316.08555603 C370.21937029 315.16924158 370.22234042 314.25292713 370.22540057 313.30884558 C370.23302915 310.24351218 370.22655124 307.17837103 370.22021484 304.11303711 C370.2229652 301.91339488 370.22664538 299.71375364 370.23118591 297.51411438 C370.23929436 292.78003027 370.24146729 288.04599338 370.23923874 283.311903 C370.23640654 275.82871004 370.2507533 268.34561155 370.26821899 260.86244202 C370.291406 250.37371288 370.31052879 239.88498716 370.32324219 229.39624023 C370.32405256 228.73104709 370.32486293 228.06585394 370.32569785 227.38050342 C370.33692552 217.93524616 370.34220219 208.48999479 370.34508498 199.04473174 C370.34528897 198.3792354 370.34549296 197.71373907 370.34570312 197.02807617 C370.34590306 196.36339252 370.346103 195.69870887 370.34630899 195.01388329 C370.35004134 183.93159599 370.36935181 172.84939029 370.40079749 161.76714617 C370.42104749 154.32547521 370.42336437 146.88407959 370.41251731 139.44239223 C370.40991526 134.81720889 370.4238891 130.19218684 370.44259834 125.56704521 C370.44793281 123.41960741 370.44640224 121.27214013 370.43756294 119.1247139 C370.4264813 116.19680402 370.4398275 113.26999034 370.45932007 110.34214783 C370.45019541 109.48923233 370.44107075 108.63631684 370.43166959 107.75755543 C370.48342158 103.77243502 370.67973154 101.74239843 372.80893898 98.26938725 C375.5515303 95.73524878 377.25815789 95.35456637 380.96484375 95.27734375 C383.45263236 96.03750138 384.55036345 96.69693016 386.05792522 98.80803013 C387.41942863 102.51506533 387.24301173 106.20047228 387.22554016 110.09886169 C387.22936571 110.99965566 387.23319126 111.90044963 387.23713273 112.82854038 C387.24746969 115.85377015 387.24346913 118.87881036 387.23950195 121.90405273 C387.24384827 124.07071611 387.24903115 126.23737794 387.25498962 128.40403748 C387.26840553 134.29706478 387.26895497 140.19002805 387.26642632 146.08306766 C387.26535747 151.0054835 387.27023825 155.92788635 387.27503175 160.85029942 C387.2861378 172.47141715 387.28655943 184.09250257 387.28051758 195.71362305 C387.27448814 207.68658501 387.2867601 219.65941545 387.30808765 231.63236374 C387.32573465 241.91876963 387.33169976 252.20513815 387.3284499 262.49155861 C387.32664043 268.63161134 387.32923887 274.7715802 387.34316444 280.91161919 C387.35578702 286.69414014 387.35375677 292.47647865 387.34075356 298.25899696 C387.33839714 300.37405332 387.3410887 302.48912269 387.34937668 304.60416412 C387.42057007 324.19562213 385.57310564 340.10037053 371.44140625 354.98828125 C360.32549391 365.26261032 347.65929402 368.90085706 332.78231812 368.77854919 C330.87254478 368.78685079 330.87254478 368.78685079 328.92419016 368.79532009 C325.42456218 368.80995472 321.92538965 368.79996609 318.42577696 368.78558338 C314.63841863 368.77440864 310.85112083 368.78643744 307.06376648 368.79542542 C299.65846882 368.8093151 292.25334238 368.8018338 284.84805296 368.78674983 C276.21587593 368.76983978 267.58374095 368.77310621 258.95155247 368.77684391 C243.54611768 368.78271449 228.14076477 368.76858154 212.73535156 368.74389648 C197.80140108 368.71996973 182.86755996 368.71289651 167.93359375 368.72338867 C151.65135671 368.73480767 135.36917017 368.73671645 119.08693373 368.72229058 C117.34960851 368.72076481 115.61228327 368.71924445 113.87495804 368.71772957 C112.59292106 368.71659285 112.59292106 368.71659285 111.28498434 368.71543316 C105.2737463 368.71069858 99.26253087 368.71253584 93.25129318 368.71679497 C85.92311789 368.72173042 78.5950458 368.71569793 71.26689409 368.69590067 C67.53093072 368.68605513 63.79512424 368.68089386 60.0591526 368.68879318 C56.00375473 368.69719227 51.94877219 368.68222009 47.8934021 368.6650238 C46.1342455 368.67403887 46.1342455 368.67403887 44.33955038 368.68323606 C30.98769461 368.58040331 18.56098668 364.17297109 8.5859375 355.03515625 C-0.11650988 345.59876753 -6.19796599 334.47133252 -6.08203125 321.515625 C-6.07526367 320.53247314 -6.06849609 319.54932129 -6.06152344 318.53637695 C-6.05282227 317.790896 -6.04412109 317.04541504 -6.03515625 316.27734375 C-6.9573999 316.28781738 -7.87964355 316.29829102 -8.82983398 316.30908203 C-12.29079753 316.34341138 -15.75157695 316.36836205 -19.21264648 316.38720703 C-20.70323565 316.39719045 -22.19380561 316.41078197 -23.68432617 316.42822266 C-36.3353667 316.57241822 -47.1302654 316.39016137 -56.984375 307.5234375 C-65.1788069 299.01978175 -65.48968156 288.883167 -65.53442383 277.54443359 C-65.54998397 276.18961289 -65.56668448 274.83480487 -65.58442688 273.48001099 C-65.62771474 269.82677247 -65.65144052 266.1736825 -65.66865373 262.52023649 C-65.67973316 260.22883868 -65.6940229 257.93748098 -65.7091732 255.64610672 C-65.75547479 248.45079792 -65.78907646 241.25558716 -65.80518895 234.06014669 C-65.82389824 225.80188901 -65.88525661 217.54540957 -65.98369104 209.28772581 C-66.05748159 202.87201325 -66.09209341 196.45680048 -66.0980522 190.04067004 C-66.10246425 186.22330626 -66.12262631 182.40770802 -66.1841526 178.59080124 C-66.43940699 161.85990849 -66.46395911 148.43845647 -55.03515625 135.27734375 C-53.99121487 133.78801609 -52.96028663 132.28914035 -51.9609375 130.76953125 C-51.09388022 129.56089614 -50.22282041 128.35512172 -49.34765625 127.15234375 C-44.73575732 120.71231832 -40.23299859 114.20672318 -35.78515625 107.65234375 C-30.37181296 99.68318787 -24.91344724 91.74717726 -19.41015625 83.83984375 C-18.74725586 82.88706543 -18.08435547 81.93428711 -17.40136719 80.95263672 C-12.10719562 73.35600253 -12.10719562 73.35600253 -9.35424805 70.35009766 C-5.53656419 64.96947213 -6.38900518 58.49837026 -6.46875 52.171875 C-6.46578616 50.80139825 -6.46004852 49.43092496 -6.45167542 48.06047058 C-6.43102535 43.73670332 -6.45057622 39.41356913 -6.47265625 35.08984375 C-6.49379264 30.06619766 -6.49832543 25.04319983 -6.47215462 20.01956749 C-6.46880004 18.0142894 -6.49048998 16.00901994 -6.51255798 14.00386047 C-6.50897781 12.78546982 -6.50539764 11.56707916 -6.50170898 10.31176758 C-6.51100685 8.70462639 -6.51100685 8.70462639 -6.52049255 7.0650177 C-5.85631926 3.25014013 -4.01181336 0.54671545 0 0 Z " fill="#F24B6D" transform="translate(95.03515625,134.72265625)"/>
<path d="M0 0 C0.66902344 0.11214844 1.33804688 0.22429687 2.02734375 0.33984375 C2.69894531 0.43394531 3.37054688 0.52804688 4.0625 0.625 C6.47307892 1.45162562 7.4022893 2.25538926 8.96484375 4.27734375 C9.33398724 6.84853649 9.33398724 6.84853649 9.3256073 9.99101257 C9.32973129 11.18153229 9.33385529 12.372052 9.33810425 13.59864807 C9.32731842 14.90631638 9.31653259 16.21398468 9.30541992 17.5612793 C9.30457379 18.95086651 9.30504852 20.34045507 9.30674744 21.7300415 C9.30760937 25.50465401 9.28995179 29.27898143 9.26902556 33.05352759 C9.25029165 36.99732509 9.24851092 40.94112887 9.24494934 44.88496399 C9.23561919 52.35415473 9.21099235 59.82321398 9.18090087 67.29234678 C9.14738699 75.79525899 9.13087844 84.29817743 9.11581457 92.80113924 C9.08444359 110.2932835 9.03166431 127.78529973 8.96484375 145.27734375 C9.52139879 145.27582487 10.07795382 145.27430599 10.65137416 145.27274108 C43.66137042 145.18316499 76.67133613 145.11456533 109.68142675 145.07308243 C113.64788822 145.0680798 117.61434944 145.06290249 121.58081055 145.05761719 C122.37043805 145.05656795 123.16006555 145.0555187 123.97362115 145.05443767 C136.74731783 145.03704798 149.52094225 145.00551824 162.29459611 144.96873257 C175.40843863 144.9312831 188.52224339 144.90909944 201.63613719 144.90098977 C209.72353198 144.89551028 217.81072254 144.87822444 225.89805444 144.84567788 C232.10683373 144.82196913 238.31545837 144.81953401 244.52427673 144.82491302 C247.06589704 144.82381446 249.60752523 144.81588292 252.14909935 144.80052185 C255.62688709 144.78053705 259.10381032 144.78543639 262.58161926 144.79632568 C263.58067931 144.78467432 264.57973935 144.77302295 265.60907394 144.76101851 C275.37465133 144.84331993 284.07717284 147.43991157 291.2421875 154.28125 C296.7187181 160.62707118 299.0712463 167.06610285 299.11201477 175.39822388 C299.12274773 176.91185768 299.12274773 176.91185768 299.13369751 178.45606995 C299.13638641 179.55225143 299.13907532 180.64843292 299.1418457 181.77783203 C299.1484169 182.94107498 299.1549881 184.10431793 299.16175842 185.30281067 C299.18146258 189.15109322 299.19314817 192.99933677 299.203125 196.84765625 C299.20720053 198.16428127 299.21127605 199.4809063 299.21547508 200.83742905 C299.23451159 207.08928707 299.24874423 213.34113343 299.25708705 219.59301484 C299.26684541 226.78497833 299.29313436 233.97663291 299.33358794 241.16848767 C299.36385796 246.74323908 299.37856628 252.31790249 299.38186806 257.89273441 C299.38420672 261.21479224 299.39501955 264.53644625 299.41832924 267.85843277 C299.44276997 271.57269883 299.44174591 275.28616583 299.43481445 279.00048828 C299.45402954 280.62654243 299.45402954 280.62654243 299.47363281 282.28544617 C299.41042846 291.62442773 297.38717462 300.78229351 290.8125 307.77734375 C284.09046938 313.23455254 276.75890989 315.427685 268.26600647 315.41778564 C267.4740563 315.42075677 266.68210613 315.42372789 265.86615747 315.42678905 C263.20381116 315.43548332 260.54150978 315.43698489 257.87915039 315.43847656 C255.97389123 315.44310414 254.068633 315.44812872 252.16337585 315.45352173 C246.98163235 315.46665161 241.79990181 315.47309157 236.61814427 315.47753239 C233.38297999 315.48046152 230.14781927 315.48456598 226.91265678 315.48903656 C216.79670797 315.50271163 206.68076727 315.51237884 196.56480986 315.51623845 C184.8755142 315.52072256 173.18633529 315.53828678 161.49707514 315.56723905 C152.46857431 315.58882743 143.4401064 315.59894117 134.41158003 315.60027957 C129.01570015 315.60132943 123.61993 315.60727589 118.22407722 315.62509918 C113.15075102 315.64153126 108.07761763 315.64375911 103.00427437 315.63496017 C101.14021795 315.63418724 99.27615136 315.63856603 97.41212082 315.64841843 C94.87140334 315.66106217 92.33137663 315.65530281 89.79066467 315.64483643 C89.04951843 315.65289283 88.30837218 315.66094923 87.54476696 315.66924977 C84.40301034 315.63888769 82.26967979 315.44965221 79.50893307 313.88914108 C77.50378575 311.79606845 77.42661143 310.64476759 77.46484375 307.77734375 C77.449375 306.6171875 77.449375 306.6171875 77.43359375 305.43359375 C77.96484375 303.27734375 77.96484375 303.27734375 79.51451969 301.66623688 C82.87494755 299.76147855 85.94236451 299.86340247 89.70127869 299.89880371 C90.48521061 299.89427358 91.26914253 299.88974345 92.07682997 299.88507605 C94.70625488 299.87343953 97.33517232 299.88310398 99.96459961 299.89257812 C101.84868193 299.88847359 103.73276172 299.88301343 105.61683655 299.876297 C109.67544997 299.86456313 113.73392737 299.86209082 117.79255486 299.86665344 C124.20866228 299.87345349 130.62459018 299.85761173 137.04066467 299.83825684 C150.66121467 299.80037104 164.28174914 299.78759669 177.90234375 299.77734375 C192.60252727 299.76627611 207.30262844 299.75096295 222.00275522 299.70663118 C228.38231319 299.68825277 234.76166662 299.68439056 241.14124477 299.69156647 C245.1086739 299.69308665 249.0760004 299.68231495 253.04340172 299.6681881 C254.88445397 299.66418019 256.72552564 299.66531939 258.56657028 299.67196083 C261.07844025 299.68032681 263.58959823 299.67037013 266.10142517 299.65588379 C266.83119456 299.66277772 267.56096394 299.66967166 268.31284755 299.6767745 C272.71516625 299.62726101 275.44724229 298.94327467 278.96484375 296.27734375 C283.92908222 290.91631701 283.53373163 285.58996158 283.48242188 278.67578125 C283.48943115 277.51411438 283.49644043 276.35244751 283.50366211 275.15557861 C283.52124734 271.32092285 283.50961653 267.48700684 283.49609375 263.65234375 C283.49878849 260.98485397 283.5026648 258.31738653 283.50769043 255.64990234 C283.51495832 250.06144212 283.50540191 244.47319366 283.48632812 238.88476562 C283.46456075 232.43282029 283.47161275 225.98138064 283.49363375 219.52944756 C283.51181245 213.98019026 283.5143341 208.43108479 283.50387907 202.88180733 C283.49765756 199.57172095 283.49835217 196.26192303 283.51002502 192.95184326 C283.52018563 189.26051671 283.5046942 185.57016055 283.48242188 181.87890625 C283.49456726 180.2422702 283.49456726 180.2422702 283.50695801 178.5725708 C283.43943795 172.53085218 283.14051784 168.796183 278.96484375 164.27734375 C275.73870952 162.23599187 273.19499133 162.02439973 269.41262436 162.01563072 C268.27604 162.00816523 267.13945564 162.00069974 265.96842933 161.99300802 C264.0949055 161.99591012 264.0949055 161.99591012 262.18353271 161.99887085 C260.84364174 161.99386876 259.50375378 161.98799322 258.1638701 161.98131812 C254.47878216 161.96549353 250.79377041 161.96208609 247.10865259 161.96066952 C243.13593015 161.95697975 239.16324972 161.94182641 235.19055176 161.92805481 C228.30652047 161.90576482 221.4225041 161.890762 214.53844452 161.88068771 C204.58521594 161.86611143 194.63203929 161.84057757 184.67884114 161.81235643 C168.53102502 161.76686932 152.38320143 161.73026245 136.23535156 161.69921875 C120.54783822 161.66904106 104.86034315 161.63469439 89.17285156 161.59472656 C88.20611589 161.59226501 87.23938022 161.58980347 86.24334952 161.58726732 C81.3935928 161.57489287 76.54383629 161.56243631 71.69407988 161.54993892 C31.45102659 161.44634239 -8.7920492 161.35714862 -49.03515625 161.27734375 C-48.99797343 178.12376138 -48.93808912 194.96992518 -48.85125351 211.81615639 C-48.81146127 219.63834599 -48.77906977 227.46043497 -48.76416016 235.28271484 C-48.75114453 242.1014348 -48.72418237 248.91993335 -48.68054318 255.73852861 C-48.65792606 259.34824887 -48.6422457 262.95769604 -48.6432724 266.56749344 C-48.64415768 270.59950786 -48.6139038 274.63071691 -48.58105469 278.66259766 C-48.58608505 279.85662201 -48.59111542 281.05064636 -48.59629822 282.28085327 C-48.51755393 288.51849521 -48.42685382 292.64643445 -44.03515625 297.27734375 C-41.33843295 299.1103081 -39.23915882 299.52852785 -36.01245117 299.5423584 C-35.22180267 299.55063156 -34.43115417 299.55890472 -33.61654663 299.56742859 C-32.75824249 299.56644669 -31.89993835 299.56546478 -31.015625 299.56445312 C-30.10463043 299.57128616 -29.19363586 299.5781192 -28.2550354 299.5851593 C-26.27874212 299.59873968 -24.30241376 299.60779786 -22.32608032 299.61286926 C-19.19927716 299.62115571 -16.07276642 299.64165783 -12.94604492 299.66540527 C-6.30912535 299.71363444 0.32782326 299.74657579 6.96484375 299.77734375 C14.65531575 299.81299531 22.34564446 299.85487622 30.03598022 299.9132843 C33.11816289 299.93337099 36.20023619 299.94167574 39.2824707 299.94958496 C41.1700887 299.962556 43.05770303 299.9760761 44.9453125 299.99023438 C45.80361664 299.98925247 46.66192078 299.98827057 47.54623413 299.98725891 C48.33688263 299.99553207 49.12753113 300.00380524 49.94213867 300.0123291 C50.62644455 300.01526222 51.31075043 300.01819534 52.01579285 300.02121735 C54.35875568 300.32910804 55.95473913 301.04709862 57.96484375 302.27734375 C59.5194468 305.38654984 59.69205068 308.90817403 58.96484375 312.27734375 C56.08121943 314.94097945 54.18081561 315.65000286 50.28808594 315.61791992 C48.90710724 315.61758003 48.90710724 315.61758003 47.49822998 315.61723328 C46.51268127 315.60174942 45.52713257 315.58626556 44.51171875 315.5703125 C42.98868134 315.56394524 42.98868134 315.56394524 41.43487549 315.55744934 C38.19459421 315.54066799 34.95493678 315.50301616 31.71484375 315.46484375 C29.51693607 315.44979624 27.31901863 315.43610795 25.12109375 315.42382812 C19.73546453 315.3907663 14.35019872 315.34057211 8.96484375 315.27734375 C9.23093349 317.32310988 9.51105743 319.36705295 9.796875 321.41015625 C9.9513208 322.54855957 10.1057666 323.68696289 10.26489258 324.85986328 C12.00051591 333.33396699 17.0509511 341.08177667 23.96484375 346.27734375 C30.28657027 350.02934218 35.78827359 352.39714354 43.1739893 352.41156483 C44.76418844 352.41825159 44.76418844 352.41825159 46.38651282 352.42507344 C47.55020642 352.42488908 48.71390001 352.42470472 49.91285706 352.42451477 C51.76844165 352.4300298 51.76844165 352.4300298 53.66151279 352.43565625 C57.09733045 352.44477671 60.53310037 352.44939139 63.9689256 352.45204556 C67.67394764 352.45595171 71.37895589 352.46552989 75.08396912 352.47425842 C84.03311549 352.49401489 92.98226299 352.50408838 101.93142572 352.51298621 C106.14740425 352.51737078 110.36338152 352.52273718 114.57935905 352.52797508 C128.59739324 352.54498716 142.61542665 352.55948059 156.63346958 352.56672382 C160.27070174 352.56863367 163.90793389 352.57055401 167.54516602 352.57250977 C168.44916549 352.57299351 169.35316496 352.57347725 170.28455835 352.57397565 C184.92359442 352.58227315 199.56254869 352.60760542 214.20154906 352.64009044 C229.23654544 352.67318173 244.27150029 352.69117449 259.30653328 352.69436806 C267.74591165 352.69653133 276.18517078 352.70525304 284.62451363 352.73082924 C291.81304808 352.7525646 299.00143433 352.76057278 306.18999792 352.75086246 C309.85521163 352.74632582 313.52011974 352.74816641 317.18529129 352.7676239 C321.16630159 352.78857475 325.14689385 352.77824418 329.12794495 352.76509094 C330.85006277 352.78154481 330.85006277 352.78154481 332.60697085 352.79833108 C343.03838926 352.71532667 351.86285309 350.08108596 359.95703125 343.3359375 C367.53859019 335.56262707 370.27440624 326.6672936 370.21640015 316.08555603 C370.21937029 315.16924158 370.22234042 314.25292713 370.22540057 313.30884558 C370.23302915 310.24351218 370.22655124 307.17837103 370.22021484 304.11303711 C370.2229652 301.91339488 370.22664538 299.71375364 370.23118591 297.51411438 C370.23929436 292.78003027 370.24146729 288.04599338 370.23923874 283.311903 C370.23640654 275.82871004 370.2507533 268.34561155 370.26821899 260.86244202 C370.291406 250.37371288 370.31052879 239.88498716 370.32324219 229.39624023 C370.32405256 228.73104709 370.32486293 228.06585394 370.32569785 227.38050342 C370.33692552 217.93524616 370.34220219 208.48999479 370.34508498 199.04473174 C370.34528897 198.3792354 370.34549296 197.71373907 370.34570312 197.02807617 C370.34590306 196.36339252 370.346103 195.69870887 370.34630899 195.01388329 C370.35004134 183.93159599 370.36935181 172.84939029 370.40079749 161.76714617 C370.42104749 154.32547521 370.42336437 146.88407959 370.41251731 139.44239223 C370.40991526 134.81720889 370.4238891 130.19218684 370.44259834 125.56704521 C370.44793281 123.41960741 370.44640224 121.27214013 370.43756294 119.1247139 C370.4264813 116.19680402 370.4398275 113.26999034 370.45932007 110.34214783 C370.45019541 109.48923233 370.44107075 108.63631684 370.43166959 107.75755543 C370.48342158 103.77243502 370.67973154 101.74239843 372.80893898 98.26938725 C375.5515303 95.73524878 377.25815789 95.35456637 380.96484375 95.27734375 C383.45263236 96.03750138 384.55036345 96.69693016 386.05792522 98.80803013 C387.41942863 102.51506533 387.24301173 106.20047228 387.22554016 110.09886169 C387.22936571 110.99965566 387.23319126 111.90044963 387.23713273 112.82854038 C387.24746969 115.85377015 387.24346913 118.87881036 387.23950195 121.90405273 C387.24384827 124.07071611 387.24903115 126.23737794 387.25498962 128.40403748 C387.26840553 134.29706478 387.26895497 140.19002805 387.26642632 146.08306766 C387.26535747 151.0054835 387.27023825 155.92788635 387.27503175 160.85029942 C387.2861378 172.47141715 387.28655943 184.09250257 387.28051758 195.71362305 C387.27448814 207.68658501 387.2867601 219.65941545 387.30808765 231.63236374 C387.32573465 241.91876963 387.33169976 252.20513815 387.3284499 262.49155861 C387.32664043 268.63161134 387.32923887 274.7715802 387.34316444 280.91161919 C387.35578702 286.69414014 387.35375677 292.47647865 387.34075356 298.25899696 C387.33839714 300.37405332 387.3410887 302.48912269 387.34937668 304.60416412 C387.42057007 324.19562213 385.57310564 340.10037053 371.44140625 354.98828125 C360.32549391 365.26261032 347.65929402 368.90085706 332.78231812 368.77854919 C330.87254478 368.78685079 330.87254478 368.78685079 328.92419016 368.79532009 C325.42456218 368.80995472 321.92538965 368.79996609 318.42577696 368.78558338 C314.63841863 368.77440864 310.85112083 368.78643744 307.06376648 368.79542542 C299.65846882 368.8093151 292.25334238 368.8018338 284.84805296 368.78674983 C276.21587593 368.76983978 267.58374095 368.77310621 258.95155247 368.77684391 C243.54611768 368.78271449 228.14076477 368.76858154 212.73535156 368.74389648 C197.80140108 368.71996973 182.86755996 368.71289651 167.93359375 368.72338867 C151.65135671 368.73480767 135.36917017 368.73671645 119.08693373 368.72229058 C117.34960851 368.72076481 115.61228327 368.71924445 113.87495804 368.71772957 C112.59292106 368.71659285 112.59292106 368.71659285 111.28498434 368.71543316 C105.2737463 368.71069858 99.26253087 368.71253584 93.25129318 368.71679497 C85.92311789 368.72173042 78.5950458 368.71569793 71.26689409 368.69590067 C67.53093072 368.68605513 63.79512424 368.68089386 60.0591526 368.68879318 C56.00375473 368.69719227 51.94877219 368.68222009 47.8934021 368.6650238 C46.1342455 368.67403887 46.1342455 368.67403887 44.33955038 368.68323606 C30.98769461 368.58040331 18.56098668 364.17297109 8.5859375 355.03515625 C-0.11650988 345.59876753 -6.19796599 334.47133252 -6.08203125 321.515625 C-6.07526367 320.53247314 -6.06849609 319.54932129 -6.06152344 318.53637695 C-6.05282227 317.790896 -6.04412109 317.04541504 -6.03515625 316.27734375 C-6.9573999 316.28781738 -7.87964355 316.29829102 -8.82983398 316.30908203 C-12.29079753 316.34341138 -15.75157695 316.36836205 -19.21264648 316.38720703 C-20.70323565 316.39719045 -22.19380561 316.41078197 -23.68432617 316.42822266 C-36.3353667 316.57241822 -47.1302654 316.39016137 -56.984375 307.5234375 C-65.1788069 299.01978175 -65.48968156 288.883167 -65.53442383 277.54443359 C-65.54998397 276.18961289 -65.56668448 274.83480487 -65.58442688 273.48001099 C-65.62771474 269.82677247 -65.65144052 266.1736825 -65.66865373 262.52023649 C-65.67973316 260.22883868 -65.6940229 257.93748098 -65.7091732 255.64610672 C-65.75547479 248.45079792 -65.78907646 241.25558716 -65.80518895 234.06014669 C-65.82389824 225.80188901 -65.88525661 217.54540957 -65.98369104 209.28772581 C-66.05748159 202.87201325 -66.09209341 196.45680048 -66.0980522 190.04067004 C-66.10246425 186.22330626 -66.12262631 182.40770802 -66.1841526 178.59080124 C-66.43940699 161.85990849 -66.46395911 148.43845647 -55.03515625 135.27734375 C-53.99121487 133.78801609 -52.96028663 132.28914035 -51.9609375 130.76953125 C-51.09388022 129.56089614 -50.22282041 128.35512172 -49.34765625 127.15234375 C-44.73575732 120.71231832 -40.23299859 114.20672318 -35.78515625 107.65234375 C-30.37181296 99.68318787 -24.91344724 91.74717726 -19.41015625 83.83984375 C-18.74725586 82.88706543 -18.08435547 81.93428711 -17.40136719 80.95263672 C-12.10719562 73.35600253 -12.10719562 73.35600253 -9.35424805 70.35009766 C-5.53656419 64.96947213 -6.38900518 58.49837026 -6.46875 52.171875 C-6.46578616 50.80139825 -6.46004852 49.43092496 -6.45167542 48.06047058 C-6.43102535 43.73670332 -6.45057622 39.41356913 -6.47265625 35.08984375 C-6.49379264 30.06619766 -6.49832543 25.04319983 -6.47215462 20.01956749 C-6.46880004 18.0142894 -6.49048998 16.00901994 -6.51255798 14.00386047 C-6.50897781 12.78546982 -6.50539764 11.56707916 -6.50170898 10.31176758 C-6.51100685 8.70462639 -6.51100685 8.70462639 -6.52049255 7.0650177 C-5.85631926 3.25014013 -4.01181336 0.54671545 0 0 Z " fill="#030235" transform="translate(95.03515625,134.72265625)"/>
<path d="M0 0 C9.9 0 19.8 0 30 0 C30.02187378 3.83093262 30.02187378 3.83093262 30.04418945 7.73925781 C30.09450402 16.17316845 30.1610935 24.60689385 30.23571491 33.04062271 C30.28046146 38.15450722 30.31970814 43.26831127 30.34643555 48.38232422 C30.37242576 53.31672291 30.41279778 58.25081268 30.46318626 63.18502045 C30.47988398 65.06845002 30.49138014 66.95193306 30.49761391 68.83542633 C30.50722345 71.47166912 30.53524453 74.10711641 30.56762695 76.74316406 C30.56547432 77.91381157 30.56547432 77.91381157 30.5632782 79.10810852 C30.61823242 82.26691669 30.80648705 84.62820246 32.27702332 87.45355225 C34.13705846 89.36542135 34.13705846 89.36542135 38 90 C38 96.93 38 103.86 38 111 C36.35 111.66 34.7 112.32 33 113 C30.38475138 116.92287293 30.72671237 120.23348251 30.75517273 124.78392029 C30.75290816 125.6927325 30.75064358 126.60154472 30.74831039 127.53789669 C30.74299545 130.59621684 30.75186109 133.65433626 30.76049805 136.71264648 C30.75938562 138.90048793 30.75732854 141.08832906 30.75439453 143.27616882 C30.74966401 147.99556065 30.75080126 152.71490277 30.75617027 157.43429375 C30.76376681 164.90236382 30.75313811 172.3703377 30.7389679 179.83839417 C30.72033441 190.31568122 30.70509141 200.79296353 30.6965332 211.27026367 C30.69598514 211.93531715 30.69543708 212.60037063 30.69487242 213.28557725 C30.68642747 224.0440546 30.68974381 234.80250687 30.69568755 245.56098437 C30.70131684 256.61723453 30.6874061 267.67335504 30.65813476 278.72956711 C30.63950554 286.14677227 30.64277671 293.56353886 30.66230237 300.98073661 C30.66920457 305.60847265 30.65518562 310.2359732 30.63535309 314.86366463 C30.63032306 317.00171265 30.63374584 319.1398008 30.64648628 321.27781677 C30.72450521 335.37909129 30.21218502 347.56298989 19.87890625 358.3203125 C10.56367305 366.64785985 0.62836634 368.45136761 -11.55601501 368.38768005 C-13.41906614 368.39575836 -13.41906614 368.39575836 -15.31975466 368.40399987 C-18.74636259 368.41578651 -22.17248103 368.41422942 -25.599069 368.40683305 C-29.30263584 368.40208832 -33.00615134 368.41462269 -36.70970154 368.42485046 C-43.95695667 368.44201801 -51.20412502 368.44288277 -58.45139521 368.43763756 C-64.34355242 368.433591 -70.23568405 368.43504519 -76.12784004 368.44038582 C-77.38724481 368.44150845 -77.38724481 368.44150845 -78.6720921 368.44265376 C-80.37790899 368.44418529 -82.08372587 368.44572364 -83.78954274 368.44726873 C-99.77440193 368.46098625 -115.75921212 368.45556123 -131.74407018 368.44408352 C-146.35760738 368.43415079 -160.97101798 368.44709382 -175.58453565 368.47101771 C-190.60274684 368.49541824 -205.62089909 368.50501431 -220.6391297 368.49836498 C-229.06553267 368.49487503 -237.49183828 368.4970901 -245.91822624 368.51461601 C-253.09094772 368.52934988 -260.26350326 368.52995794 -267.43622153 368.5125451 C-271.09323307 368.50404262 -274.74994832 368.50186683 -278.40694427 368.51719666 C-282.37711433 368.53363281 -286.34682904 368.518874 -290.31700134 368.50120544 C-291.46458213 368.51081045 -292.61216292 368.52041546 -293.79451889 368.53031152 C-306.3191803 368.41578694 -315.21423363 363.68398525 -324.2890625 355.26953125 C-325.99438607 353.00744679 -326.98213637 350.94762491 -328.10693359 348.3581543 C-328.46274506 347.54332077 -328.81855652 346.72848724 -329.18515015 345.88896179 C-329.4540506 345.2656044 -329.72295105 344.64224701 -330 344 C-329.07743588 343.99910437 -329.07743588 343.99910437 -328.1362341 343.99819064 C-291.65224957 343.96226632 -255.16835186 343.90558076 -218.68444409 343.82207905 C-214.29996501 343.81206206 -209.91548556 343.80221785 -205.53100586 343.79248047 C-204.65816577 343.7905391 -203.78532567 343.78859772 -202.88603588 343.78659752 C-188.76869497 343.75560936 -174.6513703 343.73860577 -160.5340018 343.72680578 C-146.03922375 343.7143777 -131.54453068 343.68683898 -117.0498063 343.64538693 C-108.11181906 343.62029888 -99.17397284 343.60687929 -90.2359499 343.60857043 C-84.09982326 343.60860027 -77.96383986 343.59390096 -71.82776908 343.56783572 C-68.29197872 343.55324435 -64.75648205 343.54493946 -61.22066689 343.55419731 C-57.37583058 343.56409326 -53.5315039 343.54286481 -49.6867218 343.51898193 C-48.58454089 343.52674235 -47.48235998 343.53450277 -46.34677964 343.54249835 C-33.10030271 343.39759864 -21.94307636 339.41820347 -12.2265625 330.34375 C-2.89069444 320.29702905 -0.69984898 308.66473024 -0.7215271 295.46534729 C-0.7128385 293.56977464 -0.7128385 293.56977464 -0.70397437 291.63590759 C-0.68821462 288.14002192 -0.68474591 284.64421671 -0.68332577 281.14829981 C-0.67962467 277.37399496 -0.66446565 273.59973389 -0.65071106 269.82545471 C-0.62845669 263.29015628 -0.61343245 256.75487346 -0.60334396 250.21954536 C-0.58874729 240.77060889 -0.56320769 231.32172681 -0.53501268 221.87282228 C-0.48956265 206.54193825 -0.45294044 191.21104638 -0.421875 175.88012695 C-0.39168213 160.98916243 -0.35732847 146.09821708 -0.31738281 131.20727539 C-0.31492126 130.28911982 -0.31245972 129.37096424 -0.30992357 128.42498577 C-0.29754883 123.81878608 -0.28509232 119.21258662 -0.27259517 114.60638726 C-0.16905416 76.40428403 -0.08038692 38.20215844 0 0 Z " fill="#CED9E4" transform="translate(436,120)"/>
<path d="M0 0 C1.28099359 -0.00668677 1.28099359 -0.00668677 2.58786583 -0.01350862 C3.52131136 -0.01332426 4.45475689 -0.01313989 5.41648865 -0.01294994 C6.9096205 -0.01846498 6.9096205 -0.01846498 8.43291664 -0.02409142 C11.77827591 -0.0351303 15.12360412 -0.03897249 18.46897888 -0.04278088 C20.86386209 -0.04904546 23.25874432 -0.05569226 25.65362549 -0.0626936 C32.84822049 -0.08192252 40.04281292 -0.09252302 47.2374258 -0.10142139 C50.6289218 -0.10580805 54.02041624 -0.11117396 57.41191101 -0.11641026 C68.69258805 -0.1334225 79.97326413 -0.14791466 91.25395203 -0.155159 C94.18028261 -0.15706877 97.10661318 -0.15898912 100.03294373 -0.16094494 C100.76023461 -0.16142868 101.4875255 -0.16191242 102.23685551 -0.16241082 C114.00732114 -0.17070358 125.77768489 -0.19602772 137.54810607 -0.22852562 C149.64394542 -0.26164847 161.7397331 -0.27961256 173.83561802 -0.28280324 C180.62233358 -0.28496375 187.40890067 -0.2936446 194.1955719 -0.31926441 C200.58465972 -0.34257928 206.97348096 -0.34676437 213.36260033 -0.33650303 C215.70223058 -0.33600837 218.04187411 -0.34230812 220.381464 -0.35605907 C243.15245967 -0.48236077 243.15245967 -0.48236077 252.71507263 4.13422108 C253.55839142 4.53813918 254.40171021 4.94205729 255.27058411 5.35821533 C263.304089 9.45509495 269.56119062 16.28974067 275.98753357 22.48334217 C278.22844504 24.6248124 280.52579568 26.69747923 282.84007263 28.75922108 C286.66763559 32.17986704 290.44862604 35.64668983 294.21507263 39.13422108 C298.02487261 42.66124089 301.84844853 46.16932416 305.71507263 49.63422108 C311.77275034 55.07336768 317.77604837 60.56581809 323.71507263 66.13422108 C324.21216736 66.59586658 324.70926208 67.05751209 325.22142029 67.53314686 C336.93411791 78.47314548 346.99932551 90.57647446 347.81768417 107.22126102 C347.87231946 109.57948569 347.89579681 111.93603894 347.90794373 114.29486561 C347.91612122 115.18518482 347.92429871 116.07550404 347.932724 116.99280262 C347.95739216 119.91753965 347.97403819 122.84222908 347.98851013 125.76703358 C347.99383381 126.76936905 347.99915749 127.77170452 348.00464249 128.8044138 C348.03128194 134.10102795 348.0506936 139.39761918 348.06517029 144.69427967 C348.07855109 149.07469844 348.10649291 153.45465597 348.14720154 157.83490467 C348.19643643 163.13389029 348.22127823 168.43245531 348.22839737 173.73165989 C348.23511615 175.74832099 348.25035444 177.76497246 348.27428818 179.78150272 C348.30584465 182.59895915 348.30599201 185.41477948 348.29856873 188.23236561 C348.31497406 189.06365986 348.33137939 189.89495411 348.34828186 190.75143909 C348.30225985 195.01622008 348.06623786 196.67154483 345.40126038 200.18277454 C342.71507263 202.13422108 342.71507263 202.13422108 339.15257263 202.25922108 C334.9880517 200.89628695 333.99095402 199.83985278 331.71507263 196.13422108 C331.3479015 193.21207514 331.20702045 190.67815686 331.26097107 187.76385975 C331.26038696 186.93407612 331.25980286 186.10429249 331.25920105 185.2493639 C331.26197974 182.51654163 331.2930609 179.78482069 331.32444763 177.05218983 C331.3319108 175.15362106 331.33760338 173.25504457 331.34159851 171.35646534 C331.35684884 166.36680184 331.39612557 161.37760632 331.44041443 156.38812733 C331.48138003 151.29379068 331.49961229 146.19937819 331.51976013 141.1049242 C331.56262033 131.11448456 331.63086448 121.12439178 331.71507263 111.13422108 C330.79989365 111.14310352 329.88471466 111.15198597 328.94180298 111.16113758 C320.27747242 111.24159824 311.61326905 111.3023446 302.94864941 111.34146976 C298.49505744 111.36226132 294.04177661 111.39042283 289.58836365 111.43597889 C285.28300267 111.47974013 280.9779392 111.50342144 276.67237282 111.51373005 C275.0374668 111.52106751 273.40257532 111.53539456 271.76779747 111.5571413 C261.2552223 111.69130449 251.13901737 111.4407995 242.34007263 104.88422108 C235.56173766 97.78310825 232.43980424 90.45512348 232.34007263 80.57172108 C232.31171326 79.29168201 232.28335388 78.01164295 232.25413513 76.69281483 C232.78468847 72.59676321 233.75913403 70.96721829 236.71507263 68.13422108 C240.46079549 67.416955 242.10839817 67.76753989 245.37132263 69.73968983 C248.46214259 72.89747756 248.28225309 74.65639113 248.27757263 79.00922108 C248.48768827 84.78439936 248.73334577 87.91827498 252.71507263 92.13422108 C256.39783532 94.5893962 258.1814065 94.37681813 262.57322693 94.36127186 C263.26616852 94.36156391 263.95911011 94.36185596 264.67304993 94.36215687 C266.96192475 94.36076427 269.25047347 94.34520665 271.53929138 94.32953358 C273.12683942 94.32580319 274.71438976 94.32295634 276.30194092 94.32095814 C280.47934837 94.31332368 284.65661664 94.29367683 288.83396912 94.27155018 C293.09705218 94.2510877 297.36015774 94.24195556 301.62327576 94.23187733 C309.9872719 94.21043073 318.35115495 94.17629708 326.71507263 94.13422108 C325.78831001 92.87295211 324.85789538 91.6143662 323.92601013 90.35687733 C323.40829041 89.65570789 322.89057068 88.95453846 322.35716248 88.23212147 C318.7321277 83.6008512 314.41258002 79.70575282 309.97288513 75.87250233 C305.87857208 72.30352403 301.91148455 68.61522285 297.96507263 64.88422108 C292.22826814 59.48311256 286.45860814 54.12391859 280.64085388 48.81000233 C278.04194304 46.4331613 275.45079991 44.04839784 272.86424255 41.65814686 C271.7725528 40.64936412 270.68027578 39.64121651 269.58738708 38.6337328 C266.85039504 36.11051033 264.12055821 33.58025877 261.40257263 31.03656483 C260.34010311 30.04825082 259.27760425 29.05996834 258.21507263 28.07172108 C257.27663513 27.19386951 256.33819763 26.31601795 255.37132263 25.41156483 C252.92379849 23.3131728 250.53037032 21.68977505 247.71507263 20.13422108 C247.74649353 21.10246815 247.74649353 21.10246815 247.77854919 22.09027576 C247.86181468 25.02143176 247.91376469 27.95233884 247.96507263 30.88422108 C247.99858826 31.90000233 248.03210388 32.91578358 248.06663513 33.96234608 C248.16536266 41.46563827 248.16536266 41.46563827 245.91819763 44.80218983 C242.63472021 46.78741288 240.46795515 46.73736291 236.71507263 46.13422108 C234.05500488 43.5289055 232.83094969 41.88810725 232.26097107 38.17987537 C232.29239197 36.58526478 232.29239197 36.58526478 232.32444763 34.95843983 C232.34378357 33.22303944 232.34378357 33.22303944 232.36351013 31.45258045 C232.41378357 29.65530506 232.41378357 29.65530506 232.46507263 27.82172108 C232.48311951 26.60420155 232.50116638 25.38668201 232.51976013 24.13226795 C232.56682133 21.13211686 232.63255953 18.13357219 232.71507263 15.13422108 C203.09203097 15.17055053 173.4690828 15.22722995 143.84614001 15.31214203 C140.34533867 15.32215895 136.84453687 15.33200317 133.34373474 15.34174061 C132.6468163 15.34368198 131.94989786 15.34562335 131.23186067 15.34762356 C119.96167449 15.37860697 108.69150865 15.39561397 97.42128792 15.4074153 C85.84871823 15.41984587 74.27626098 15.4476858 62.70375758 15.48883414 C56.2071185 15.51144919 49.71063114 15.52713171 43.2139492 15.52610493 C37.09489038 15.52535837 30.97616694 15.54330841 24.8571949 15.57538891 C22.61553859 15.58388409 20.37384464 15.58564046 18.13217926 15.58002377 C2.87732043 15.54690248 -8.71165777 15.75508732 -20.19117737 26.90765858 C-28.3020898 35.53306918 -29.72396098 44.56393979 -29.69117737 56.02875233 C-29.70201355 57.1385294 -29.71284973 58.24830647 -29.72401428 59.39171314 C-29.76966736 64.10686718 -29.78140939 68.82196159 -29.79615784 73.53729725 C-29.81181697 76.99298287 -29.84479035 80.44820528 -29.87867737 83.90375233 C-29.87565613 84.97043644 -29.87263489 86.03712055 -29.86952209 87.13612843 C-29.87963318 88.12783543 -29.88974426 89.11954243 -29.90016174 90.14130116 C-29.90324341 91.446273 -29.90324341 91.446273 -29.90638733 92.77760792 C-30.36616668 95.639979 -31.33838798 97.01684734 -33.28492737 99.13422108 C-35.18727112 99.88422108 -35.18727112 99.88422108 -37.22242737 100.13422108 C-37.89145081 100.23734608 -38.56047424 100.34047108 -39.24977112 100.44672108 C-42.30201959 99.97804569 -43.35480019 98.48026808 -45.28492737 96.13422108 C-45.78613281 93.63248158 -45.78613281 93.63248158 -45.78663635 90.7899828 C-45.7960173 89.72142048 -45.80539825 88.65285816 -45.81506348 87.55191517 C-45.8038295 86.40087299 -45.79259552 85.24983082 -45.78102112 84.06390858 C-45.78247635 82.87250263 -45.78393158 81.68109669 -45.78543091 80.45358753 C-45.78377042 77.93011503 -45.77219256 75.40663256 -45.7514801 72.88324451 C-45.72269256 69.04458315 -45.73083641 65.20731746 -45.74391174 61.36859608 C-45.73766894 58.91286026 -45.72927379 56.45712879 -45.71852112 54.00140858 C-45.72145676 52.86251179 -45.7243924 51.723615 -45.72741699 50.55020618 C-45.55524722 35.78926289 -40.42266218 23.85028304 -30.28492737 13.13422108 C-21.93187916 5.76835129 -11.39265557 0.02767697 0 0 Z " fill="#010234" transform="translate(134.28492736816406,8.865778923034668)"/>
<path d="M0 0 C1.20450806 0.02489502 1.20450806 0.02489502 2.43334961 0.05029297 C14.58982751 0.52023793 24.13518343 4.93777838 33.1875 12.9375 C42.71091408 23.74786193 47.09693936 33.62414511 46.80859375 48.16015625 C45.56953136 61.82121118 39.09045833 72.15408036 28.76953125 80.875 C25.53407524 83.28070911 22.21194837 85.01721753 18.5 86.5625 C17.200625 87.1503125 17.200625 87.1503125 15.875 87.75 C10.69449164 89.52227918 5.37850387 89.79474914 -0.0625 89.9375 C-1.34253906 89.98648438 -2.62257812 90.03546875 -3.94140625 90.0859375 C-8.50842159 89.41417015 -9.67401802 88.16176581 -12.5 84.5625 C-12.99083215 81.7756216 -13.17668 79.60107694 -13.13110352 76.82226562 C-13.13825882 76.05903488 -13.14541412 75.29580414 -13.15278625 74.50944519 C-13.16964734 71.99526476 -13.15028774 69.48287412 -13.12890625 66.96875 C-13.1297352 65.21667331 -13.13219555 63.46459669 -13.13621521 61.71252441 C-13.13907142 58.04395078 -13.12438973 54.37598828 -13.09692383 50.70751953 C-13.06284101 46.00968589 -13.06886074 41.31294484 -13.0875864 36.6150589 C-13.09816488 32.99813767 -13.08921094 29.38146982 -13.07420158 25.76457214 C-13.06902551 24.03265638 -13.0694946 22.30071409 -13.07574654 20.56880188 C-13.08120916 18.14620246 -13.06079227 15.72515665 -13.03344727 13.30273438 C-13.03997314 12.58985764 -13.04649902 11.8769809 -13.05322266 11.14250183 C-12.98625819 7.64617236 -12.54068287 5.62945116 -10.71080017 2.61804199 C-7.45072241 -0.41308982 -4.22149697 -0.14603625 0 0 Z " fill="#030133" transform="translate(191.5,320.4375)"/>
<path d="M0 0 C0.9523643 -0.00905664 1.90472859 -0.01811328 2.88595241 -0.02744436 C3.92922839 -0.02211644 4.97250436 -0.01678851 6.04739475 -0.01129913 C7.15801086 -0.01739024 8.26862698 -0.02348134 9.41289812 -0.02975702 C13.14782039 -0.04645402 16.88240423 -0.04160154 20.6173563 -0.03681183 C23.2896146 -0.04414824 25.96184721 -0.05263994 28.63409519 -0.06247711 C35.14708622 -0.08354397 41.65998826 -0.08807127 48.17300933 -0.08628923 C53.46607478 -0.08498229 58.75911244 -0.08878226 64.05217266 -0.09621429 C65.57605396 -0.09831346 67.09993525 -0.10041106 68.62381655 -0.10250711 C69.38226127 -0.10355064 70.14070598 -0.10459417 70.92213387 -0.10566932 C85.27012057 -0.12457658 99.61805616 -0.12351994 113.96605016 -0.11669999 C127.09601348 -0.11112353 140.22578174 -0.1319534 153.35569947 -0.16506046 C166.83352498 -0.19878136 180.31125701 -0.21396784 193.7891255 -0.20934343 C201.35754583 -0.20709719 208.92578585 -0.21236438 216.49417019 -0.23723602 C222.93706258 -0.25822853 229.37967578 -0.26186176 235.82257956 -0.24293643 C239.11045117 -0.2337657 242.39769271 -0.23537607 245.68554401 -0.25329208 C249.24861735 -0.27137172 252.81029279 -0.2588175 256.37332249 -0.23834991 C257.41436774 -0.25086776 258.45541299 -0.26338561 259.52800506 -0.27628279 C264.26610348 -0.21771054 266.53316491 -0.16954129 270.41997719 2.73054504 C272.27385044 5.38311005 272.27385044 5.38311005 272.83635044 8.44561005 C272.10749847 12.25183701 271.46446331 13.15182557 268.27385044 15.38311005 C264.66185512 15.99740394 261.07383588 15.9264213 257.41764927 15.89777374 C256.29816049 15.90471927 255.1786717 15.9116648 254.02525902 15.9188208 C250.26026609 15.93717071 246.49589757 15.92680382 242.73088169 15.91655731 C240.03728866 15.9236117 237.34374056 15.93221727 234.6501627 15.9426651 C228.08533964 15.9643249 221.52068979 15.96417327 214.95584273 15.95603956 C209.62128667 15.94974404 204.2867812 15.95087245 198.95222569 15.95731163 C197.81409749 15.95866411 197.81409749 15.95866411 196.65297681 15.96004392 C195.11166786 15.96189508 193.57035892 15.96375764 192.02904999 15.96563148 C177.57043456 15.98221666 163.11191666 15.97348446 148.65330708 15.9566459 C135.41919858 15.94194636 122.18531706 15.95657955 108.9512378 15.98541606 C95.36831798 16.01479272 81.78550299 16.02578754 68.2025528 16.01623386 C66.66686028 16.01521129 65.13116775 16.01421668 63.5954752 16.01325035 C62.83985178 16.01277396 62.08422837 16.01229757 61.30570728 16.01180675 C55.97649535 16.00964042 50.64738244 16.01945817 45.31819248 16.03402138 C38.82512144 16.05151736 32.33233989 16.05146697 25.83928037 16.02866972 C22.52521392 16.01750244 19.21176518 16.01710935 15.89770222 16.03297043 C12.30799196 16.04879584 8.7196939 16.0340473 5.13005161 16.01129913 C4.07831162 16.02313486 3.02657164 16.03497059 1.94296074 16.04716498 C-5.06204235 15.95651795 -5.06204235 15.95651795 -8.40466213 13.07041073 C-10.22089873 9.37701664 -9.88325963 7.28835655 -8.72614956 3.38311005 C-5.87341295 0.65971895 -3.8990834 0.00745247 0 0 Z " fill="#040436" transform="translate(152.726149559021,185.61688995361328)"/>
<path d="M0 0 C0.70167801 -0.00478363 1.40335602 -0.00956726 2.126297 -0.01449585 C3.60806525 -0.01788754 5.08990907 -0.00873579 6.5715332 0.01220703 C8.80921112 0.03879139 11.04178217 0.01254958 13.27929688 -0.01953125 C22.70098707 -0.04337665 30.65990392 0.94262532 37.77612305 7.68310547 C44.63061475 14.96478666 46.15259354 21.1322538 45.9296875 31.02734375 C45.35448752 38.36311337 42.9142473 43.39434645 37.64453125 48.6640625 C29.79541096 54.51846834 22.92535363 55.96812911 13.26953125 55.7890625 C11.87927734 55.77552734 11.87927734 55.77552734 10.4609375 55.76171875 C8.18853048 55.73829187 5.91666945 55.70548998 3.64453125 55.6640625 C3.67071533 56.45578857 3.69689941 57.24751465 3.72387695 58.06323242 C3.82797247 61.65913967 3.89290025 65.25472981 3.95703125 68.8515625 C3.99892578 70.09744141 4.04082031 71.34332031 4.08398438 72.62695312 C4.22214236 82.93353862 4.22214236 82.93353862 1.3125 85.98828125 C-1.99464777 88.06553805 -3.52372924 88.46234156 -7.35546875 87.6640625 C-10.78564901 84.98584938 -12.20227709 83.50632581 -12.99038696 79.17321777 C-13.0198889 77.81826766 -13.02219932 76.4625491 -13.00244141 75.10742188 C-13.011203 74.36369827 -13.0199646 73.61997467 -13.0289917 72.85371399 C-13.05093131 70.40448007 -13.03645416 67.95706355 -13.01953125 65.5078125 C-13.02290099 63.80057429 -13.02775494 62.09333842 -13.0340271 60.3861084 C-13.04139099 56.81169751 -13.03070903 53.23791226 -13.00732422 49.66357422 C-12.97883608 45.0866491 -12.99524273 40.5111899 -13.02518654 35.93431854 C-13.04327296 32.41002397 -13.03749546 28.88607575 -13.02454758 25.36177063 C-13.02121725 23.67450282 -13.02528755 21.98720335 -13.03694534 20.29997253 C-13.04967713 17.93937159 -13.03024891 15.58112881 -13.00244141 13.22070312 C-13.01256256 12.52652786 -13.02268372 11.8323526 -13.03311157 11.11714172 C-12.95065933 7.33031645 -12.41244489 5.73589325 -10.02992249 2.73220825 C-6.53126895 0.02671167 -4.39306052 0.01916574 0 0 Z " fill="#060234" transform="translate(113.35546875,320.3359375)"/>
<path d="M0 0 C3.59799504 1.26317541 6.01332305 2.6266674 8.75 5.2734375 C9.43416992 5.92731445 10.11833984 6.58119141 10.82324219 7.25488281 C11.9007373 8.30434082 11.9007373 8.30434082 13 9.375 C14.52554159 10.83645969 16.05158778 12.29739281 17.578125 13.7578125 C18.32900391 14.48000977 19.07988281 15.20220703 19.85351562 15.94628906 C22.78529195 18.75135076 25.76090401 21.50629138 28.75 24.25 C29.79688224 25.21353381 30.84375729 26.17707541 31.890625 27.140625 C32.40173828 27.61048828 32.91285156 28.08035156 33.43945312 28.56445312 C36.12973777 31.03924564 38.81452616 33.51998979 41.5 36 C42.58330839 37.00002702 43.66664169 38.00002706 44.75 39 C46.91666667 41 49.08333333 43 51.25 45 C51.78681396 45.49532227 52.32362793 45.99064453 52.87670898 46.50097656 C53.95514564 47.4968558 55.03278865 48.49359519 56.10961914 49.49121094 C58.88684164 52.06204381 61.67808684 54.61451384 64.49609375 57.140625 C70.29691261 62.36600785 75.66770484 67.43966734 80 74 C80 74.33 80 74.66 80 75 C70.71609565 75.11598963 61.43244175 75.20476333 52.1479702 75.25906086 C47.83650444 75.28512475 43.52553538 75.32046314 39.21435547 75.37719727 C35.0516435 75.43163307 30.88940846 75.46144467 26.72636795 75.47438622 C25.14033121 75.48360549 23.55431979 75.50160915 21.96848679 75.52865028 C19.74193235 75.56509747 17.5173334 75.56993927 15.29052734 75.56762695 C14.02477875 75.57873001 12.75903015 75.58983307 11.45492554 75.60127258 C6.46375903 74.7326427 3.63887345 72.26884503 0.6484375 68.12890625 C-0.62248689 63.95629303 -0.3609823 59.54472132 -0.4609375 55.21484375 C-0.69041073 51.95348783 -0.69041073 51.95348783 -2.8515625 50.12890625 C-5.08281974 48.88275766 -5.08281974 48.88275766 -8 48 C-8.33 40.74 -8.66 33.48 -9 26 C-6.69 25.34 -4.38 24.68 -2 24 C-0.76939579 21.53879159 -0.7942277 19.74223134 -0.68359375 16.9921875 C-0.64169922 16.00605469 -0.59980469 15.01992188 -0.55664062 14.00390625 C-0.51732422 12.97136719 -0.47800781 11.93882813 -0.4375 10.875 C-0.39431641 9.83472656 -0.35113281 8.79445313 -0.30664062 7.72265625 C-0.2003712 5.14857472 -0.09833417 2.57439492 0 0 Z " fill="#1EC3DF" transform="translate(382,29)"/>
<path d="M0 0 C0.83364012 -0.00623996 1.66728024 -0.01247993 2.52618217 -0.01890898 C5.32389352 -0.03488355 8.12073899 -0.02221744 10.91845703 -0.00964355 C12.92238881 -0.01506269 14.9263166 -0.02218417 16.93023682 -0.03088379 C22.37647488 -0.04914479 27.82241041 -0.04203808 33.26865387 -0.02936745 C38.96296516 -0.0192542 44.65725021 -0.02862846 50.3515625 -0.03491211 C59.91492371 -0.04219339 69.47816144 -0.03258815 79.04150391 -0.0135498 C90.10470157 0.00821979 101.16760439 0.00116876 112.23079491 -0.02085543 C121.72218033 -0.03899568 131.21347689 -0.04157446 140.70487404 -0.03110075 C146.3768459 -0.02485828 152.04867909 -0.02405094 157.72064209 -0.0372467 C163.05260804 -0.04878454 168.38419314 -0.04081715 173.71611786 -0.01766968 C175.67530433 -0.01237154 177.63452275 -0.01391515 179.59369659 -0.02272034 C182.2637464 -0.03361586 184.93256799 -0.01998527 187.60253906 0 C188.38191267 -0.00892289 189.16128628 -0.01784577 189.96427727 -0.02703905 C193.46343444 0.02393031 195.43965913 0.23957325 198.28634644 2.35218048 C200.34316165 5.27905368 200.31264433 7.00136455 199.80126953 10.50793457 C198.02142548 13.64385027 197.27818746 14.34896193 193.80126953 15.50793457 C191.14019769 15.61227834 188.5048693 15.6601141 185.84341431 15.66183472 C184.6136701 15.6684081 184.6136701 15.6684081 183.35908258 15.67511427 C180.60234181 15.68850634 177.84563301 15.69468199 175.08886719 15.70080566 C173.11626541 15.70870614 171.14366509 15.71697506 169.17106628 15.72558594 C162.68583558 15.75180645 156.2005984 15.76711092 149.71533203 15.78137207 C147.48447032 15.78673123 145.25360866 15.79210873 143.02274704 15.79750443 C133.74600344 15.81913078 124.46926159 15.83786926 115.19249916 15.84912682 C101.88702037 15.86537864 88.58183301 15.89858927 75.2764641 15.95552766 C65.9260843 15.99418124 56.57578261 16.01375392 47.22532499 16.01904738 C41.63761913 16.02270634 36.05022409 16.03478602 30.46260452 16.06715012 C25.20779801 16.09715096 19.95349174 16.10357108 14.69861794 16.09176636 C12.76885301 16.09154497 10.8390654 16.09990353 8.90937996 16.1174202 C6.27667721 16.14002003 3.64580265 16.13186049 1.01309204 16.11593628 C-0.13511302 16.13675941 -0.13511302 16.13675941 -1.30651414 16.15800321 C-5.26561892 16.09890772 -7.02831936 15.64221078 -10.17681313 13.16134071 C-12.19873047 10.50793457 -12.19873047 10.50793457 -12.76123047 7.44543457 C-11.38621958 0.26482213 -6.39187644 -0.07317927 0 0 Z " fill="#050537" transform="translate(155.19873046875,131.4920654296875)"/>
<path d="M0 0 C0.68254868 -0.0055344 1.36509736 -0.01106879 2.06832933 -0.0167709 C4.35480218 -0.0303813 6.64018413 -0.01540737 8.92663574 -0.00050354 C10.56603967 -0.0042866 12.20544041 -0.00978654 13.84483337 -0.01687622 C18.29733808 -0.03084986 22.7494572 -0.01964777 27.20194054 -0.00316501 C31.85923957 0.01067475 36.51651596 0.00422664 41.17382812 0.0007019 C48.99530255 -0.00200107 56.81662359 0.01148287 64.63806152 0.03465271 C73.6835672 0.06126301 82.72881638 0.06300988 91.77434778 0.05126435 C100.4721928 0.04048891 109.16994495 0.04667179 117.86778259 0.06081963 C121.57106214 0.06658147 125.27427377 0.06649519 128.97755432 0.06175423 C133.33769257 0.05698543 137.69754961 0.06708197 142.05763435 0.08870888 C143.6588299 0.09427827 145.26005245 0.09474064 146.86124992 0.08975601 C149.04510147 0.08380963 151.22809137 0.09629468 153.41186523 0.11352539 C155.2458147 0.11717023 155.2458147 0.11717023 157.11681366 0.12088871 C160.44938191 0.53117769 161.84779887 1.15382563 164.20593262 3.50120544 C164.66687012 5.43870544 164.66687012 5.43870544 164.58093262 7.50120544 C164.56804199 8.18183044 164.55515137 8.86245544 164.54187012 9.56370544 C164.20593262 11.50120544 164.20593262 11.50120544 162.20593262 14.50120544 C158.80629178 15.63441906 156.20061824 15.63855796 152.61477661 15.65510559 C151.94195503 15.65948784 151.26913344 15.6638701 150.57592332 15.66838515 C148.3166853 15.68176215 146.05748627 15.68794945 143.79821777 15.69407654 C142.18029098 15.7019782 140.56236593 15.7102472 138.94444275 15.71885681 C133.6279773 15.7450636 128.31150401 15.76038044 122.99499512 15.77464294 C121.16531748 15.78000267 119.3356399 15.78538018 117.50596237 15.7907753 C109.89685308 15.81239966 102.2877459 15.83113771 94.67861366 15.84239769 C83.7693781 15.85864717 72.8604981 15.8918541 61.95139658 15.94879854 C54.28253152 15.98746705 46.6137617 16.00702655 38.94480169 16.01231825 C34.363111 16.0159752 29.78179967 16.02803307 25.20021439 16.06042099 C20.89091003 16.09044844 16.58221565 16.09683274 12.27282906 16.08503723 C10.69137234 16.08481607 9.10988774 16.09315677 7.52852821 16.11069107 C5.36863411 16.13333674 3.2109608 16.12511287 1.05105591 16.10920715 C-0.15720541 16.1125173 -1.36546673 16.11582745 -2.61034203 16.1192379 C-6.72736925 15.32003063 -8.21879436 13.74380421 -10.79406738 10.50120544 C-11.35656738 7.43870544 -11.35656738 7.43870544 -10.79406738 4.50120544 C-7.61542245 0.25334315 -5.16947487 0.00088488 0 0 Z " fill="#000033" transform="translate(153.7940673828125,76.49879455566406)"/>
<path d="M0 0 C0.66959246 -0.00623996 1.33918491 -0.01247993 2.02906805 -0.01890898 C4.2717363 -0.03485807 6.51332049 -0.02222838 8.7559967 -0.00964355 C10.36422357 -0.01506392 11.97244548 -0.0221861 13.58065796 -0.03088379 C17.94850975 -0.04913189 22.31598396 -0.0420432 26.68384242 -0.02936745 C31.25392985 -0.01924569 35.82398479 -0.02863099 40.39407349 -0.03491211 C48.07011218 -0.04219166 55.74599699 -0.03259353 63.42201233 -0.0135498 C72.29599949 0.00821181 81.16961894 0.00117404 90.04359716 -0.02085543 C97.66155931 -0.03900992 105.27941077 -0.04156728 112.89738756 -0.03110075 C117.44766393 -0.02486508 121.9977675 -0.02403201 126.54803276 -0.0372467 C130.8269807 -0.04880506 135.10545494 -0.04077997 139.38435173 -0.01766968 C140.95449029 -0.01238214 142.52466874 -0.01389718 144.09479141 -0.02272034 C146.23910608 -0.03365873 148.38190488 -0.01993562 150.52612305 0 C151.7257112 0.0015081 152.92529936 0.0030162 154.16123867 0.00457001 C157.97071219 0.61037201 159.64372101 1.77711635 162.32655334 4.50793457 C162.95155334 7.44543457 162.95155334 7.44543457 162.32655334 10.50793457 C159.75513095 13.7338895 158.25993059 15.32322021 154.16123867 16.13434696 C152.96165051 16.13493327 151.76206236 16.13551958 150.52612305 16.13612366 C149.51939437 16.14676524 149.51939437 16.14676524 148.49232775 16.1576218 C146.25020242 16.17518193 144.00981539 16.15711002 141.76771545 16.13903809 C140.157717 16.14417769 138.54772416 16.15145927 136.93774414 16.16072083 C132.56993044 16.17923665 128.20272707 16.16629596 123.83493876 16.14663053 C119.26439244 16.13024692 114.69388485 16.13905638 110.12332153 16.14414978 C102.4490229 16.14867061 94.77496801 16.13280049 87.10072327 16.1048584 C78.22611682 16.07279508 69.35194972 16.07282664 60.47731203 16.09007317 C51.94122487 16.10593117 43.40529892 16.09921014 34.86921883 16.08213615 C31.23569515 16.0752606 27.60230049 16.07630322 23.96877861 16.08368111 C19.69144167 16.09133665 15.41460542 16.07924211 11.1373539 16.0518322 C9.56680157 16.04493998 7.99620255 16.04485938 6.42565155 16.05204773 C4.28320718 16.06072445 2.14231447 16.04482 0 16.02259827 C-1.19921113 16.01979135 -2.39842226 16.01698442 -3.63397312 16.01409245 C-7.29841068 15.40386047 -8.48772097 14.46877674 -10.67344666 11.50793457 C-11.22514812 7.64602433 -11.41405867 5.51138028 -9.05928707 2.32093048 C-5.89167005 -0.08613609 -3.95846345 0.00497808 0 0 Z " fill="#000033" transform="translate(262.67344665527344,240.4920654296875)"/>
<path d="M0 0 C1.39164368 -0.01891296 1.39164368 -0.01891296 2.81140137 -0.03820801 C4.30371277 -0.02606262 4.30371277 -0.02606262 5.82617188 -0.01367188 C6.8542395 -0.01749878 7.88230713 -0.02132568 8.94152832 -0.02526855 C11.11353536 -0.02798861 13.2855751 -0.02062093 15.45751953 -0.00390625 C18.78296916 0.01750118 22.10625823 -0.00370565 25.43164062 -0.02929688 C27.54232248 -0.02665362 29.65300299 -0.02152868 31.76367188 -0.01367188 C32.75854614 -0.0217688 33.75342041 -0.02986572 34.77844238 -0.03820801 C41.63553959 0.05498254 41.63553959 0.05498254 44.92578125 2.36328125 C46.79481524 5.30414358 46.79414887 7.09430731 46.29492188 10.51757812 C44.51507783 13.65349383 43.77183981 14.35860548 40.29492188 15.51757812 C37.70861963 15.60239585 35.15014131 15.63356042 32.56445312 15.61523438 C31.81403244 15.61381943 31.06361176 15.61240448 30.29045105 15.61094666 C27.89606727 15.60535372 25.50177734 15.59280256 23.10742188 15.58007812 C21.48307427 15.57506221 19.85872519 15.57049946 18.234375 15.56640625 C14.25449213 15.55623792 10.27481194 15.53666124 6.29492188 15.51757812 C6.29492188 22.77757812 6.29492188 30.03757812 6.29492188 37.51757812 C9.99775391 37.43056641 9.99775391 37.43056641 13.77539062 37.34179688 C16.17485341 37.30276701 18.57428041 37.272428 20.97387695 37.24291992 C22.63745026 37.21782466 24.30091383 37.18374016 25.96411133 37.14038086 C28.35981341 37.07950353 30.75405439 37.05132044 33.15039062 37.02929688 C33.89016647 37.00349045 34.62994232 36.97768402 35.39213562 36.95109558 C39.34915626 36.9489618 41.12383588 37.3864108 44.30004883 39.8215332 C46.29492188 42.51757812 46.29492188 42.51757812 46.35742188 46.14257812 C45.15827155 49.95164385 44.73361471 50.67246789 41.29492188 52.51757812 C38.53227023 52.77416261 36.00416629 52.86783407 33.24804688 52.81054688 C32.47684509 52.80630203 31.70564331 52.80205719 30.91107178 52.79768372 C28.45532872 52.78093195 26.00041559 52.74328751 23.54492188 52.70507812 C21.876965 52.6900267 20.20899523 52.67633909 18.54101562 52.6640625 C14.4586661 52.63104007 10.37693455 52.57928297 6.29492188 52.51757812 C6.32110596 53.40018311 6.34729004 54.28278809 6.37426758 55.19213867 C6.45972462 58.48169393 6.52227932 61.77006234 6.56958008 65.06030273 C6.59465335 66.48139103 6.62872186 67.90235126 6.67211914 69.32299805 C6.73310045 71.37125274 6.7611995 73.41779696 6.78320312 75.46679688 C6.80938721 76.69744873 6.83557129 77.92810059 6.86254883 79.19604492 C6.13686906 83.442442 4.63561724 84.88799509 1.29492188 87.51757812 C-1.76757812 88.08007812 -1.76757812 88.08007812 -4.70507812 87.51757812 C-6.85632324 85.96008301 -6.85632324 85.96008301 -8.70507812 83.51757812 C-9.09996178 80.83291971 -9.2529059 78.55756795 -9.22265625 75.875 C-9.22966553 75.11030899 -9.2366748 74.34561798 -9.24389648 73.55775452 C-9.26148163 71.03357479 -9.24985261 68.51051897 -9.23632812 65.98632812 C-9.23902291 64.23042587 -9.24290521 62.47452507 -9.2479248 60.71862793 C-9.25382053 57.03997581 -9.24525468 53.36171239 -9.2265625 49.68310547 C-9.20377269 44.96836152 -9.2168954 40.25452834 -9.24085236 35.53981781 C-9.25530845 31.91437928 -9.25070526 28.28915659 -9.24034119 24.66371155 C-9.23767337 22.92537834 -9.24094562 21.18702552 -9.2502594 19.44871521 C-9.26042219 17.01866779 -9.24492944 14.59009393 -9.22265625 12.16015625 C-9.23480164 11.08309166 -9.23480164 11.08309166 -9.24719238 9.98426819 C-9.19105165 6.67715273 -8.9024541 4.79523512 -6.96679688 2.07226562 C-4.38250168 0.29584164 -3.10720616 0.01214774 0 0 Z " fill="#020033" transform="translate(276.705078125,320.482421875)"/>
<path d="M0 0 C3.66434951 1.71025466 5.9345589 3.75997924 8.75 6.6875 C12.32235908 10.39238207 16.03405225 13.8123308 19.92089844 17.17700195 C23.27541936 20.11831334 26.5084194 23.18542305 29.75 26.25 C34.601942 30.81713199 39.46157478 35.37399784 44.375 39.875 C45.78652344 41.16857422 45.78652344 41.16857422 47.2265625 42.48828125 C49.12545788 44.20798509 51.0376557 45.91308225 52.9609375 47.60546875 C53.88132812 48.41628906 54.80171875 49.22710937 55.75 50.0625 C56.56984375 50.77535156 57.3896875 51.48820312 58.234375 52.22265625 C60 54 60 54 60 56 C53.88025582 56.0992969 47.76098648 56.17167096 41.640625 56.21972656 C39.56111475 56.23977159 37.48166037 56.26701513 35.40234375 56.30175781 C32.40350513 56.35058948 29.40541537 56.37304028 26.40625 56.390625 C25.48509399 56.41127014 24.56393799 56.43191528 23.61486816 56.45318604 C16.6094463 56.45559031 11.33230824 54.87556328 5.9765625 50.25390625 C5.53054688 49.69574219 5.08453125 49.13757813 4.625 48.5625 C4.16351563 48.00691406 3.70203125 47.45132813 3.2265625 46.87890625 C-0.22769082 41.5875182 -0.26977253 36.88687314 -0.1953125 30.76171875 C-0.1924826 29.88095169 -0.18965271 29.00018463 -0.18673706 28.09272766 C-0.17557833 25.29084455 -0.15048171 22.48928584 -0.125 19.6875 C-0.11496463 17.78320775 -0.10583975 15.87891048 -0.09765625 13.97460938 C-0.07565309 9.31628203 -0.04115294 4.65819594 0 0 Z " fill="#2CCCF4" transform="translate(393,38)"/>
<path d="M0 0 C9.73435967 1.08159552 15.82288659 2.818536 22.390625 9.8984375 C27.56719966 16.65813937 29.83179738 23.58442429 29.4140625 32.08203125 C28.20080072 40.63209302 24.36128922 47.21457485 18 53 C12.62719317 57.00280065 6.68089708 59 0 59 C0 39.53 0 20.06 0 0 Z " fill="#EE4A6C" transform="translate(194,336)"/>
<path d="M0 0 C1.11755676 -0.00788544 1.11755676 -0.00788544 2.25769043 -0.01593018 C4.72221807 -0.02914123 7.18610047 -0.02038763 9.65063477 -0.01025391 C11.36312484 -0.01227455 13.07561407 -0.0151859 14.7881012 -0.01895142 C18.37851142 -0.02337643 21.96869782 -0.01693888 25.55908203 -0.00292969 C30.16050028 0.0141495 34.76139311 0.00433034 39.36279202 -0.01364708 C42.89984592 -0.02449119 46.43677542 -0.02103549 49.97383308 -0.0132637 C51.67029953 -0.01126276 53.36677727 -0.01371728 55.06323051 -0.02070236 C57.43568675 -0.02832584 59.80729442 -0.01670023 62.1796875 0 C63.23105644 -0.00910904 63.23105644 -0.00910904 64.30366516 -0.0184021 C68.34517491 0.03427317 70.78146743 0.45034563 73.65454102 3.38818359 C74.11547852 5.32568359 74.11547852 5.32568359 74.02954102 7.38818359 C74.01665039 8.06880859 74.00375977 8.74943359 73.99047852 9.45068359 C73.65454102 11.38818359 73.65454102 11.38818359 71.65454102 14.38818359 C68.11041484 15.56955898 65.2504009 15.54433797 61.50854492 15.58105469 C60.42265831 15.59332092 60.42265831 15.59332092 59.31483459 15.60583496 C56.92026592 15.63063864 54.52575624 15.64719028 52.13110352 15.66162109 C50.90342821 15.66960661 50.90342821 15.66960661 49.65095139 15.67775345 C45.32045173 15.70446073 40.98998069 15.723845 36.65942383 15.73828125 C33.07615699 15.7516319 29.49345809 15.77950783 25.91040039 15.8203125 C21.58210524 15.86960207 17.25432601 15.89439723 12.92576218 15.90150833 C11.27751406 15.90822359 9.62927757 15.92345298 7.98118973 15.94739914 C5.67329097 15.97902423 3.36738476 15.97909293 1.05932617 15.97167969 C-0.90899673 15.98380997 -0.90899673 15.98380997 -2.91708374 15.9961853 C-7.22873537 15.23153984 -8.72932398 13.84275156 -11.34545898 10.38818359 C-11.34545898 6.94866449 -11.1458749 4.61170321 -9.24205017 1.70150757 C-6.34774023 -0.30270222 -3.39653721 -0.02934279 0 0 Z " fill="#010133" transform="translate(154.345458984375,240.61181640625)"/>
<path d="M0 0 C0.33 0 0.66 0 1 0 C1 16.83 1 33.66 1 51 C-4.49655736 51.6107286 -9.35646733 52.1238818 -14.78515625 52.09765625 C-15.97431641 52.09443359 -17.16347656 52.09121094 -18.38867188 52.08789062 C-20.2072168 52.07532227 -20.2072168 52.07532227 -22.0625 52.0625 C-23.30966797 52.05798828 -24.55683594 52.05347656 -25.84179688 52.04882812 C-28.89458221 52.03713163 -31.94726498 52.02074086 -35 52 C-30.78620212 45.30919335 -26.49352088 38.69359366 -22 32.1875 C-20.87984792 30.56014386 -19.7600732 28.93252792 -18.640625 27.3046875 C-18.05603516 26.45487305 -17.47144531 25.60505859 -16.86914062 24.72949219 C-14.85481675 21.78798998 -12.85575208 18.83652202 -10.859375 15.8828125 C-10.17488281 14.8719458 -9.49039063 13.8610791 -8.78515625 12.81958008 C-7.44145222 10.83416711 -6.10025386 8.84705574 -4.76171875 6.8581543 C-4.15457031 5.96265869 -3.54742187 5.06716309 -2.921875 4.14453125 C-2.38143555 3.34378174 -1.84099609 2.54303223 -1.28417969 1.71801758 C-0.86040039 1.15107178 -0.43662109 0.58412598 0 0 Z " fill="#EF4A6D" transform="translate(88,228)"/>
<path d="M0 0 C3.34125 -0.103125 6.6825 -0.20625 10.125 -0.3125 C11.68758545 -0.38078003 11.68758545 -0.38078003 13.28173828 -0.45043945 C17.78746204 -0.51760498 21.02445442 -0.52926199 24.6171875 2.39453125 C28.30120143 6.42278911 28.39768584 9.13356599 28.3515625 14.453125 C27.77615781 18.62161229 26.08634537 20.19423148 23 23 C20.03871624 24.79469422 17.89833952 25.24186945 14.453125 25.1953125 C13.69161133 25.19031738 12.93009766 25.18532227 12.14550781 25.18017578 C10.71223145 25.15286377 10.71223145 25.15286377 9.25 25.125 C4.67125 25.063125 4.67125 25.063125 0 25 C0 16.75 0 8.5 0 0 Z " fill="#EA496B" transform="translate(116,336)"/>
</svg>
